<?xml version="1.0" encoding="UTF-8" standalone="no"?>
<!-- Generator: Adobe Illustrator 19.1.0, SVG Export Plug-In . SVG Version: 6.00 Build 0)  -->

<svg
   version="1.1"
   id="Capa_1"
   x="0px"
   y="0px"
   viewBox="0 0 440.125 440.125"
   style="enable-background:new 0 0 440.125 440.125;"
   xml:space="preserve"
   sodipodi:docname="copy.svg"
   inkscape:version="1.3.2 (091e20e, 2023-11-25, custom)"
   xmlns:inkscape="http://www.inkscape.org/namespaces/inkscape"
   xmlns:sodipodi="http://sodipodi.sourceforge.net/DTD/sodipodi-0.dtd"
   xmlns="http://www.w3.org/2000/svg"
   xmlns:svg="http://www.w3.org/2000/svg"><defs
   id="defs33" /><sodipodi:namedview
   id="namedview33"
   pagecolor="#ffffff"
   bordercolor="#000000"
   borderopacity="0.25"
   inkscape:showpageshadow="2"
   inkscape:pageopacity="0.0"
   inkscape:pagecheckerboard="0"
   inkscape:deskcolor="#d1d1d1"
   inkscape:zoom="2.0244249"
   inkscape:cx="219.81552"
   inkscape:cy="220.0625"
   inkscape:window-width="1920"
   inkscape:window-height="1129"
   inkscape:window-x="-8"
   inkscape:window-y="-8"
   inkscape:window-maximized="1"
   inkscape:current-layer="Capa_1" />
<g
   id="g18"
   style="fill:#0ca4fb;fill-opacity:1">
	<g
   id="g2"
   style="fill:#0ca4fb;fill-opacity:1">
		<path
   d="M313.938,187.702L212.563,86.327c-3.079-3.958-7.836-6.37-12.85-6.301c-0.746,0.023-1.49,0.099-2.225,0.099H55.963    c-8.836,0-15.999,7.415-16,16.251v328c0.001,8.836,7.164,15.749,16,15.749h248c8.836,0,15.999-6.913,16-15.749v-221.4    C320.92,197.164,318.605,191.296,313.938,187.702L313.938,187.702z M215.963,135.002l49.375,49.124h-49.375L215.963,135.002    L215.963,135.002z M287.963,408.126h-216v-296h112v85.676c-0.843,5.145,0.873,10.379,4.6,14.025    c0.041,0.042,0.083,0.084,0.125,0.125c0.074,0.067,0.149,0.008,0.225,0.074c3.639,3.482,8.706,5.099,13.675,4.099h85.375V408.126z    "
   id="path1"
   style="fill:#0ca4fb;fill-opacity:1" />
		<path
   d="M393.932,107.689L292.557,6.314c-3.02-3.891-7.919-6.376-12.844-6.313c-0.744,0.032-1.486,0.124-2.219,0.124H135.963    c-4.189,0-8.351,1.851-11.313,4.812c-2.962,2.962-4.686,7.25-4.687,11.439v43.749h32v-28h112V97.72l38.656,38.405h65.344v192h-28    v32h44c4.189,0,8.351-1.599,11.313-4.561c2.962-2.962,4.686-6.999,4.687-11.188V122.971    C400.897,117.296,398.49,111.196,393.932,107.689z M295.963,104.126V55.002l49.375,49.124H295.963z"
   id="path2"
   style="fill:#0ca4fb;fill-opacity:1" />
	</g>
	<g
   id="g3"
   style="fill:#0ca4fb;fill-opacity:1">
	</g>
	<g
   id="g4"
   style="fill:#0ca4fb;fill-opacity:1">
	</g>
	<g
   id="g5"
   style="fill:#0ca4fb;fill-opacity:1">
	</g>
	<g
   id="g6"
   style="fill:#0ca4fb;fill-opacity:1">
	</g>
	<g
   id="g7"
   style="fill:#0ca4fb;fill-opacity:1">
	</g>
	<g
   id="g8"
   style="fill:#0ca4fb;fill-opacity:1">
	</g>
	<g
   id="g9"
   style="fill:#0ca4fb;fill-opacity:1">
	</g>
	<g
   id="g10"
   style="fill:#0ca4fb;fill-opacity:1">
	</g>
	<g
   id="g11"
   style="fill:#0ca4fb;fill-opacity:1">
	</g>
	<g
   id="g12"
   style="fill:#0ca4fb;fill-opacity:1">
	</g>
	<g
   id="g13"
   style="fill:#0ca4fb;fill-opacity:1">
	</g>
	<g
   id="g14"
   style="fill:#0ca4fb;fill-opacity:1">
	</g>
	<g
   id="g15"
   style="fill:#0ca4fb;fill-opacity:1">
	</g>
	<g
   id="g16"
   style="fill:#0ca4fb;fill-opacity:1">
	</g>
	<g
   id="g17"
   style="fill:#0ca4fb;fill-opacity:1">
	</g>
</g>
<g
   id="g19">
</g>
<g
   id="g20">
</g>
<g
   id="g21">
</g>
<g
   id="g22">
</g>
<g
   id="g23">
</g>
<g
   id="g24">
</g>
<g
   id="g25">
</g>
<g
   id="g26">
</g>
<g
   id="g27">
</g>
<g
   id="g28">
</g>
<g
   id="g29">
</g>
<g
   id="g30">
</g>
<g
   id="g31">
</g>
<g
   id="g32">
</g>
<g
   id="g33">
</g>
</svg>
